<?xml version="1.0" encoding="UTF-8"?>
<svg width="752pt" height="752pt" version="1.1" viewBox="0 0 752 752" xmlns="http://www.w3.org/2000/svg">
 <g>
  <path d="m432.3 394.95c8.9453 0 16.312-7.3672 16.312-16.312 0-8.9453-7.3672-16.312-16.312-16.312-8.9453 0-16.312 7.3672-16.312 16.312 0 8.9453 7.8945 16.312 16.312 16.312zm0-22.102c3.1562 0 5.7891 2.6328 5.7891 5.7891s-2.6328 5.7891-5.7891 5.7891-5.7891-2.6328-5.7891-5.7891 3.1602-5.7891 5.7891-5.7891z"/>
  <path d="m558.07 531.76c3.1562 0 5.2617-2.1055 5.2617-5.2617s-2.1055-5.2617-5.2617-5.2617h-61.566v-333.09c0-3.1562-2.1055-5.2617-5.2617-5.2617h-244.68c-3.1562 0-5.2617 2.1055-5.2617 5.2617v333.09h-61.566c-3.1562 0-5.2617 2.1055-5.2617 5.2617s2.1055 5.2617 5.2617 5.2617h61.566v21.047h-61.566c-3.1562 0-5.2617 2.1055-5.2617 5.2617s2.1055 5.2617 5.2617 5.2617h61.566v1.0508c0 3.1562 2.1055 5.2617 5.2617 5.2617h244.16c3.1562 0 5.2617-2.1055 5.2617-5.2617v-1.0508h61.566c3.1562 0 5.2617-2.1055 5.2617-5.2617s-2.1055-5.2617-5.2617-5.2617h-61.043v-21.047zm-95.242 6.3125h-187.85v-320.98h187.86zm-194.17 15.785c0-1.0508 0.52734-1.5781 1.0508-2.6328 1.0508-1.5781 2.6328-2.6328 4.2109-2.6328h192.59c0.52734 0 1.0508 0 1.5781 0.52734 2.1055 0.52734 3.6836 2.6328 3.6836 4.7344 0 3.1562-2.1055 5.2617-5.2617 5.2617l-192.59 0.007813c-2.6289 0-5.2617-2.1055-5.2617-5.2656zm204.69-14.207v-327.82c0-3.1562-2.1055-5.2617-5.2617-5.2617h-198.38c-3.1562 0-5.2617 2.1055-5.2617 5.2617v329.93c-3.6836 2.6328-6.3125 7.3672-6.3125 12.102 0 2.1055 0.52734 3.6836 1.0508 5.2617h-7.3672v-365.71h234.16v365.71h-4.2109c0.52734-1.5781 1.0508-3.1562 1.0508-5.2617-0.52344-6.3125-4.207-11.574-9.4688-14.207z"/>
 </g>
</svg>
