<?xml version="1.0" encoding="UTF-8"?>
<svg width="752pt" height="752pt" version="1.1" viewBox="0 0 752 752" xmlns="http://www.w3.org/2000/svg">
 <path d="m473.09 259.5c0-1.4219 0-2.8398-0.47266-4.2617-3.3164-13.262-8.9961-22.73-13.734-28.887-32.68-41.676-100.88-35.047-105.61-35.047h-0.47266c-5.2109 0-69.145-6.1562-100.4 34.098-7.5781 9.9453-11.84 20.836-13.734 29.836-0.47266 1.4219-0.47266 4.2617-0.47266 5.6836l14.68 266.62-2.8398 32.676c0.94531 2.8398 2.8398 2.3672 4.2617 3.3164 8.0508 6.6289 23.68 5.2109 28.887 4.7344 0.94531 0 1.8945 0 2.8398-0.47266 4.7344 0 19.418 0.47266 27.469-5.6836 2.3672-1.8945 3.3164-1.8945 4.2617-3.7891l-1.4219-14.68c-1.8906-9.4727 6.6328-16.102 17.051-16.102h44.043c10.891 0 18.941 6.6289 17.996 16.574l-1.4219 15.629c0.94531 2.8398 2.8398 2.3672 4.2617 3.7891 8.0508 6.6289 23.68 5.2109 28.887 4.7344h2.8398c4.7344 0 19.418 0.47266 27.469-5.6836 2.3672-1.8945 3.3164-1.8945 4.2617-3.7891-0.94531-11.367-1.8945-22.73-2.8398-34.098zm-118.39 107.03c-36.938 0-66.773-29.836-66.773-66.301 0-36.465 29.836-66.301 66.773-66.301s66.773 29.836 66.773 66.301c0 36.465-29.836 66.301-66.773 66.301zm0-105.61c-21.785 0-39.781 17.523-39.781 39.309 0 21.785 17.996 39.309 39.781 39.309s39.781-17.523 39.781-39.309c0-21.785-17.996-39.309-39.781-39.309zm15.629 67.723c-3.3164 0-6.6289-2.8398-6.6289-6.1562 0-3.3164 2.8398-6.1562 6.6289-6.1562 3.3164 0 6.6289 2.8398 6.6289 6.1562 0 3.3125-2.8438 6.1562-6.6289 6.1562zm0-25.102c-8.0508 0-14.68-6.6289-14.68-14.207 0-8.0508 6.6289-14.207 14.68-14.207 8.0508 0 14.68 6.6289 14.68 14.207 0 7.5781-6.6289 14.207-14.68 14.207zm-45.938 58.25c-1.8945-0.94531-3.7891-1.8945-6.6289-1.8945-4.2617 0-8.9961 1.8945-12.785 3.3164-6.1562 2.8398-9.4727 8.0508-13.262 13.262-2.3672 3.7891-4.7344 7.5781-8.0508 10.418-0.94531 0.94531-1.8945 1.8945-2.8398 2.8398-6.1562 6.6289-10.418 15.156-14.207 23.207-3.7891 7.5781-8.0508 15.629-13.734 22.258-8.0508 8.5234-13.734 18.469-19.891 27.941-6.1562 9.9453-12.312 19.891-20.363 28.887-11.84 12.785-26.047 22.73-40.727 28.887-4.2695 1.8984-6.6367 5.2109-6.1641 9 0 3.7891 2.3672 7.1055 6.1562 8.5234 8.0508 2.8398 15.629 3.7891 23.68 3.7891h2.8398c12.312-0.47266 35.047-3.7891 47.832-18.469 1.4219-1.8945 4.2617-4.7344 7.5781-7.5781 3.7891-3.7891 7.5781-7.5781 9.4727-9.9453 14.207-17.051 27.469-24.625 45.465-31.258 3.7891-1.4219 6.1562-5.2109 6.1562-8.9961-1.4219-32.203 2.3672-74.824 9.4727-104.19zm-125.03 175.23c-6.1562 0.47266-11.367-1.4219-11.84-5.2109-0.47266-3.3164 4.2617-7.1055 10.418-7.5781 6.1562-0.47266 11.367 1.4219 11.84 5.2109 0 3.7891-4.2617 7.1055-10.418 7.5781zm32.676-10.418c-7.1055 2.3672-13.734 0.94531-15.156-3.3164-1.4219-4.2617 2.8398-9.4727 9.9453-11.84 7.1055-2.3672 13.734-0.94531 15.156 3.3164 1.4219 3.7891-2.8398 9.4688-9.9453 11.84zm28.418-21.312c-2.8398 3.7891-8.5234 4.7344-12.785 1.8945-4.2617-2.8398-5.2109-8.5234-2.3672-12.312 2.8398-3.7891 8.5234-4.7344 12.785-1.8945 4.2617 2.8398 5.207 8.5234 2.3672 12.312zm331.98-197.48c-13.262-4.2617-25.102-5.6836-35.992-4.7344-16.574 1.8945-31.258 9.9453-38.832 22.258-3.7891 6.6289-6.1562 13.734-8.0508 20.836-1.4219 5.6836-3.3164 11.84-5.6836 17.051-3.7891 8.0508-9.9453 14.68-17.523 19.891-7.5781 5.2109-16.574 8.0508-25.102 8.5234h-2.8398c-8.0508 0-16.102-1.8945-23.207-5.6836-8.0508-4.2617-14.68-10.418-19.418-17.523-8.5234 15.156-17.051 29.836-25.574 44.988-1.8945 3.3164-3.7891 6.6289-4.7344 10.418-1.4219 6.6289 0.47266 16.102 9.9453 24.625 5.6836 4.7344 12.785 8.5234 23.207 11.84 14.207 4.7344 29.836 8.5234 47.359 10.891 15.629 2.3672 33.152 3.7891 46.883-4.7344 14.68-8.9961 21.312-26.52 26.992-44.988 5.2109-17.051 10.418-34.098 15.629-50.672 6.1562-20.363 14.68-43.098 34.098-51.621 0.94531-0.47266 1.8945-0.94531 2.8398-1.4219 0.47266 0 0.94531-0.47266 1.4219-0.47266 2.3672-0.94531 3.3164-2.8398 3.3164-5.2109-1.8945-2.3633-2.8438-3.7812-4.7344-4.2578zm-108.45 155.81c-7.5781 0.94531-14.68-2.3672-15.156-7.1055-0.47266-4.7344 5.2109-9.9453 13.262-10.891 7.5781-0.94531 14.68 2.3672 15.156 7.1055 0.47266 5.207-5.2109 9.9453-13.262 10.891zm33.152-17.996c-2.8398 3.7891-8.0508 4.7344-11.84 1.8945-3.7891-2.8398-4.7344-8.5234-2.3672-12.312 2.8398-3.7891 8.0508-4.7344 11.84-1.8945 3.7891 2.8398 4.7344 8.0508 2.3672 12.312zm15.629-24.625c-2.8398 6.1562-8.5234 9.9453-12.785 7.5781-4.2617-1.8945-5.6836-8.9961-2.8398-15.156 2.8398-6.1562 8.5234-9.9453 12.785-7.5781 4.2578 1.8945 5.6797 8.5273 2.8398 15.156zm13.258-35.047c-1.4219 6.6289-6.6289 11.367-11.367 9.9453-4.7344-1.4219-7.1055-7.5781-5.2109-14.207 1.4219-6.6289 6.6289-11.367 11.367-9.9453 4.2656 0.94922 6.6328 7.5781 5.2109 14.207zm0-25.098c-4.2617 0.47266-8.5234-1.8945-8.9961-5.6836-0.47266-3.3164 2.8398-6.6289 7.5781-7.1055 4.2617-0.47266 8.5234 1.8945 8.9961 5.6836 0 3.3164-3.3164 6.6328-7.5781 7.1055zm16.578-27.469c-5.2109 5.2109-11.84 6.6289-15.156 3.3164-3.3164-3.3164-1.4219-9.9453 3.7891-14.68 5.2109-4.7344 11.84-6.6289 15.156-3.3164 3.3125 2.8398 1.418 9.4688-3.7891 14.68z"/>
</svg>
