<?xml version="1.0" encoding="UTF-8"?>
<svg width="752pt" height="752pt" version="1.1" viewBox="0 0 752 752" xmlns="http://www.w3.org/2000/svg">
 <g>
  <path d="m303.72 258.86c0 3.6172-2.9336 6.5508-6.5508 6.5508-3.6172 0-6.5469-2.9336-6.5469-6.5508 0-3.6172 2.9297-6.5469 6.5469-6.5469 3.6172 0 6.5508 2.9297 6.5508 6.5469"/>
  <path d="m484.6 436.76h99.949c-64.293-64.297-116.87-28.629-137.09-9.5703-6.3281-9.6406-14.52-17.938-24.113-24.336 4.5078-7.9297 7.1172-17.074 7.1172-26.848 0-0.15625-0.027344-0.30469-0.027344-0.46484l31.16-31.16c3.6992-3.6992 3.6992-9.6953 0-13.395s-9.6953-3.6992-13.395 0l-22.652 22.652c-4.0781-8.9961-10.457-16.742-18.488-22.328 16.062-6.8945 29.352-18.98 37.805-34.133 3.1914 0.82812 6.5156 1.3125 9.9648 1.3125 21.883 0 39.633-17.746 39.633-39.633 0-21.891-17.75-39.633-39.633-39.633-3.4531 0-6.7812 0.48828-9.9648 1.3125-11.98-21.48-33.715-36.734-59.211-39.859 0.015625-0.21875 0.066406-0.42969 0.066406-0.65234 0-5.3711-4.3516-9.7227-9.7227-9.7227s-9.7227 4.3516-9.7227 9.7227c0 0.22266 0.050781 0.42969 0.066406 0.64844-25.504 3.1211-47.23 18.375-59.211 39.859-3.1875-0.82812-6.5117-1.3125-9.9648-1.3125-21.891 0-39.633 17.746-39.633 39.633 0 21.895 17.746 39.633 39.633 39.633 3.4492 0 6.7734-0.48828 9.9609-1.3125 8.4531 15.148 21.742 27.234 37.801 34.133-8.0273 5.5938-14.402 13.332-18.484 22.328l-22.652-22.652c-3.6953-3.6992-9.6992-3.6992-13.395 0-3.6992 3.6992-3.6992 9.6953 0 13.395l31.16 31.168c0 0.15625-0.027344 0.30469-0.027344 0.46484 0 9.7656 2.6055 18.914 7.1094 26.844-9.5898 6.3984-17.789 14.695-24.109 24.336-20.211-19.062-72.777-54.723-137.08 9.5703h99.949c-27.363 10.004-56.602 35.25-56.602 97.469l82.875-82.883c-1.9766 7.2109-3.1211 14.766-3.1211 22.605 0 26.789 12.352 50.68 31.652 66.34v23.711c0 5.2266 4.2422 9.4727 9.4727 9.4727 5.2266 0 9.4727-4.2422 9.4727-9.4727v-12.102c7.9023 3.5391 16.418 5.9336 25.375 6.9219v16.082c0 5.2266 4.2422 9.4727 9.4727 9.4727 5.2266 0 9.4727-4.2422 9.4727-9.4727v-16.082c8.957-0.98828 17.469-3.3906 25.375-6.9297v12.109c0 5.2266 4.2422 9.4727 9.4727 9.4727 5.2266 0 9.4727-4.2422 9.4727-9.4727v-23.723c19.297-15.66 31.652-39.543 31.652-66.328 0-7.8359-1.1406-15.395-3.1211-22.605l82.883 82.883c0.003906-62.219-29.238-87.465-56.602-97.469zm-29.77-208.24c16.75 0 30.332 13.578 30.332 30.332 0 16.754-13.582 30.336-30.332 30.336-16.754 0-30.332-13.582-30.332-30.336 0-16.754 13.578-30.332 30.332-30.332zm-157.66 60.664c-16.754 0-30.336-13.582-30.336-30.336 0-16.754 13.582-30.332 30.336-30.332 16.75 0 30.336 13.578 30.336 30.332 0.003906 16.762-13.578 30.336-30.336 30.336zm58.242 15.852c-3.6172 0-6.5508-2.9297-6.5508-6.5508 0-3.6172 2.9297-6.543 6.5508-6.543 3.6172 0 6.5508 2.9297 6.5508 6.543 0 3.6172-2.9336 6.5508-6.5508 6.5508zm20.59 0c-3.6172 0-6.5508-2.9297-6.5508-6.5508 0.003906-3.6172 2.9336-6.5469 6.5508-6.5469s6.5508 2.9297 6.5508 6.543-2.9297 6.5547-6.5508 6.5547zm20.594 0c-3.6172 0-6.5508-2.9297-6.5508-6.5508 0-3.6172 2.9297-6.543 6.5508-6.543 3.6172 0 6.5508 2.9297 6.5508 6.543-0.003906 3.6172-2.9375 6.5508-6.5508 6.5508z"/>
  <path d="m461.38 258.86c0 3.6172-2.9336 6.5508-6.5508 6.5508-3.6172 0-6.5469-2.9336-6.5469-6.5508 0-3.6172 2.9297-6.5469 6.5469-6.5469 3.6172 0 6.5508 2.9297 6.5508 6.5469"/>
 </g>
</svg>
