<?xml version="1.0" encoding="UTF-8"?>
<svg width="752pt" height="752pt" version="1.1" viewBox="0 0 752 752" xmlns="http://www.w3.org/2000/svg">
 <path d="m557.05 438.47c-3.1484-8.6758-5.1992-59.535-5.1992-59.535l3.8281 1.1602s-15.594-62.801-27.676-76.371l3.4609-2.9883s-29.98-44.703-63.516-51.906c-4.1758-7.3984-9.5039-15.16-9.5039-15.16l5.7461 0.30469c-8.9062-11.125-31.309-28.18-31.309-28.18l11.609 0.37109c-15.496-11.523-34.328-15.098-34.328-15.098-3.7305-8.1641-14.141-13.109-14.141-13.109 0.39844 7.1523-5.957 7.9453-5.957 7.9453-12.664-1.8984-2.7812-13.508-2.7812-13.508-13.906-0.79688-26.105 11.125-26.105 11.125-6.6367-3.1758 0-11.125 0-11.125-12.598 0.79687-21.57 15.098-21.57 15.098-7.1523 0-11.125-11.125-11.125-11.125-5.957 6.3555-3.3242 13.898-3.3242 13.898-20.957 7.0664-36.801 18.281-36.801 18.281h7.1523c-9.3906 6.2383-22.32 28.672-28.574 40.246-33.582 7.1133-63.645 51.938-63.645 51.938l3.4609 2.9883c-12.086 13.566-27.68 76.371-27.68 76.371l3.8281-1.1602s-2.0508 50.852-5.1992 59.535c0 0 2.1875-0.69922 4.5859-3.7734 0 0-4.4141 26.176-2.9727 34.059 1.4336 7.8906 3.1719 18.484 10.32 18.812 0 0 1.8047 6.7266 12.719 3.5 0 0 3.4102 6.5625 11.801 4.9062 5.4883-1.0781 12.359-6.6484 15.559-13.445 8.6016 5.6016 14.426-10.191 14.426-10.191 2.25-13.535 0.69531-23.219-1.2031-25.773-1.9023-2.5586-9.9531-19.379-9.9531-19.379l7.1641 2.7148c-9.6289-17.555-0.75-64.531-0.75-64.531l3.418 6.5586c0.36328-16.391 12.445-38.918 12.445-38.918-1.9883 12.715-3.3281 26.656-2.9922 40.289 1.0625 43.438 10.016 75.75 7.3945 90.051l7.418-11.66s1.0547 29.664 5.3008 38.668c4.2383 9.0039 2.9141 25.426 1.8516 29.664l7.1523-11.656s2.6484 28.871 4.5039 37.082c1.8516 8.2109 12.711 10.328 26.484 9.2734 13.777-1.0625 21.453 2.9141 24.633-9.0078 3.1758-11.922-5.8242-15.629 7.6797-44.234 0 0 6.8867 1.1523 16.703 1.8203l-0.20703 0.46094c2.125-0.015624 4.1953-0.0625 6.1953-0.14062 2 0.074218 4.0664 0.12891 6.1953 0.14062l-0.20312-0.46094c9.8164-0.66797 16.699-1.8203 16.699-1.8203 13.508 28.605 4.5039 32.312 7.6797 44.234 3.1758 11.922 10.859 7.9453 24.633 9.0078 13.773 1.0625 24.633-1.0625 26.488-9.2734 1.8555-8.2109 4.5039-37.082 4.5039-37.082l7.1523 11.656c-1.0625-4.2383-2.3828-20.656 1.8555-29.664 4.2383-9.0039 5.293-38.668 5.293-38.668l7.4414 11.656c-2.625-14.301 6.332-46.613 7.3945-90.051 0.33203-13.629-1.0039-27.566-2.9922-40.289 0 0 12.082 22.527 12.445 38.918l3.4141-6.5586s8.8789 46.973-0.75 64.531l7.1602-2.7148s-8.0508 16.82-9.9531 19.379c-1.9023 2.5508-3.4531 12.238-1.2031 25.773 0 0 5.8242 15.793 14.426 10.191 3.1953 6.8008 10.074 12.363 15.559 13.445 8.3906 1.6523 11.801-4.9062 11.801-4.9062 10.918 3.2266 12.719-3.5 12.719-3.5 7.1445-0.32812 8.8789-10.922 10.32-18.812 1.4336-7.8867-2.9727-34.059-2.9727-34.059 2.3789 3.0742 4.5664 3.7812 4.5664 3.7812zm-327.42 29.84c-3.8633-5.4609-10.801 4.4961-10.801 4.4961s-0.66016-13.789 5.957-16.496c0 0 5.6953-1.293 6.6055 6.5508 0.25 2.168-0.60156 3.8984-1.7617 5.4492zm70.004-209.7c0-3.7188 3.0117-6.7305 6.7305-6.7305s6.7344 3.0117 6.7344 6.7305-3.0117 6.7305-6.7344 6.7305c-3.7148 0.003906-6.7305-3.0117-6.7305-6.7305zm132.09 31.922c-0.80469 0.53125-20.176 12.977-64.344 12.977-44.172 0-63.547-12.445-64.344-12.977-1.0977-0.72266-1.4023-2.2031-0.67578-3.3008 0.72266-1.0977 2.2031-1.4023 3.3008-0.67578 0.17969 0.11719 19.16 12.184 61.723 12.184 42.555 0 61.543-12.066 61.727-12.191 1.1016-0.71484 2.5781-0.41016 3.3008 0.6875 0.71094 1.0977 0.40625 2.5703-0.6875 3.2969zm-3.3477-25.188c-3.7188 0-6.7305-3.0117-6.7305-6.7305s3.0117-6.7305 6.7305-6.7305 6.7344 3.0117 6.7344 6.7305c0 3.7148-3.0195 6.7305-6.7344 6.7305zm87.547 207.46s-6.9375-9.9531-10.801-4.4961c-1.1641-1.5469-2.0156-3.2812-1.7656-5.4492 0.91016-7.8438 6.6055-6.5508 6.6055-6.5508 6.6172 2.7109 5.9609 16.496 5.9609 16.496z"/>
</svg>
