<?xml version="1.0" encoding="UTF-8"?>
<svg width="752pt" height="752pt" version="1.1" viewBox="0 0 752 752" xmlns="http://www.w3.org/2000/svg">
 <g>
  <path d="m232.22 290.32c-7.1133 0.58594-13.238-2.6992-13.238-2.6992 17.855-2.3672 13.906-24.156 13.906-24.156-19.844 3.582-19.766 16.793-21.465 15.574-1.7109-1.2227-2.9219-8.5391-2.9219-8.5391-7.4141 6.0352-7.8281 25.344-7.8281 25.344 26.562 6.1289 31.547-5.5234 31.547-5.5234z"/>
  <path d="m590.96 382.05c0-28.973-23.57-52.531-52.535-52.531-24.031 0-43.59 19.547-43.59 43.59 0 20.094 16.344 32.707 36.445 32.707 26.105-0.74219 16.613-21.008 16.613-21.008 0 8.2891-8.3281 9.0469-16.613 9.0469-11.441 0-20.742-9.3086-20.742-20.742 0-15.379 12.508-27.895 27.895-27.895 20.312 0 36.84 16.523 36.84 36.836 0 26.469-21.539 47.996-48 47.996-34.176 0-56.602-40.742-62.277-61.965-1.5938-5.9609-3.5312-11.656-6.3555-16.996 4.9453 3.8477 7.3047 6.832 7.3047 6.832 2.7695-38.598-52.488-40.145-52.488-40.145 10.715-8.8359 45.199-8.3516 45.199-8.3516-40.371-33.617-90.426-5.7773-90.426-5.7773 2.1641-10.113 20.328-23.633 20.328-23.633-37.922 2.6641-40.598 28.266-40.738 30.039-60.598-1.4531-125.7 14.207-137.36 51.953-0.44922 1.4531-0.84375 2.9102-1.2109 4.3633-17.301-14.348-40.387-41.984-8.5508-70.512 0 0-63.645 33.598 6.2109 86.551-2.1641 47.242 36.199 95.102 94.332 113.07 42.137 13.023 84.555 7.2148 114.18-12.285 6.7734-4.4453 12.867-9.6094 18.145-15.434 5.832-6.4414 10.656-13.672 14.266-21.617 0.64844-1.4297 2.3906-6.5352 4.2734-12.281 6.7656 5.1602 49.84 35.191 102.2 5.8633 5.7617-2.7109 11.062-6.2461 15.727-10.477 0.14844-0.11719 0.30078-0.23047 0.44922-0.34766 0 0-0.058593 0.019531-0.14844 0.050781 12.66-11.656 20.633-28.363 20.633-46.898zm-188.79 44.113c-22.133 0-40.07-17.938-40.07-40.066 0-22.125 17.938-40.07 40.07-40.07 22.125 0 40.07 17.945 40.07 40.07 0 22.129-17.941 40.066-40.07 40.066z"/>
  <path d="m428.22 370.95c0 3.8789-3.1406 7.0195-7.0195 7.0195-3.8711 0-7.0156-3.1406-7.0156-7.0195 0-3.6484 2.793-6.6523 6.3633-6.9883-2.6992-1.2109-5.6953-1.8906-8.8555-1.8906-11.922 0-21.594 9.6602-21.594 21.59s9.6719 21.59 21.594 21.59c11.922 0 21.59-9.6602 21.59-21.59 0-5.3672-1.957-10.262-5.1875-14.043 0.078125 0.42578 0.125 0.875 0.125 1.332zm-27.137 30.266c-1.5195 0-2.7539-1.2305-2.7539-2.7422 0-1.5273 1.2305-2.7539 2.7539-2.7539 1.5156 0 2.7461 1.2266 2.7461 2.7539 0 1.5117-1.2305 2.7422-2.7461 2.7422z"/>
 </g>
</svg>
