<?xml version="1.0" encoding="UTF-8"?>
<svg width="752pt" height="752pt" version="1.1" viewBox="0 0 752 752" xmlns="http://www.w3.org/2000/svg">
 <g>
  <path d="m423.36 211.2c0 5.7539-4.6641 10.418-10.418 10.418s-10.418-4.6641-10.418-10.418c0-5.7539 4.6641-10.418 10.418-10.418s10.418 4.6641 10.418 10.418"/>
  <path d="m349.48 235.35c0 5.7539-4.6641 10.418-10.418 10.418s-10.418-4.6641-10.418-10.418 4.6641-10.418 10.418-10.418 10.418 4.6641 10.418 10.418"/>
  <path d="m439.46 329.59c-11.84-4.2617-19.891-15.629-19.891-28.414v-43.57c0-8.9961 4.2617-17.523 11.367-23.207 7.1055-5.2109 11.84-14.207 11.84-23.68 0-17.051-14.207-30.309-31.258-29.836-15.629 0.47266-27.941 13.262-28.414 28.887-0.47266 9.9453 4.2617 18.941 11.84 24.625 7.1055 5.6836 11.367 13.734 11.367 22.73v37.414c0 16.574-13.262 29.836-29.836 29.836h-0.47266c-16.574 0-29.836-13.262-29.836-29.836v-13.262c0-8.9961 4.2617-17.523 11.367-23.207 7.1055-5.2109 11.84-14.207 11.84-23.68 0-17.051-14.207-30.309-31.258-29.836-15.629 0.47266-27.941 13.262-28.414 28.887-0.47266 9.9453 4.2617 18.941 11.84 24.625 7.1055 5.6836 11.367 13.734 11.367 22.73v19.418c0 12.785-8.0508 23.68-19.891 28.414-44.988 16.574-78.613 75.773-78.613 146.81v2.3672c0 41.203 22.73 74.824 51.148 74.824h17.051v10.891c0 3.3164 2.8398 6.6289 6.6289 6.6289 3.3164 0 6.6289-2.8398 6.6289-6.6289v-10.891h122.18v10.891c0 3.3164 2.8398 6.6289 6.6289 6.6289 3.3164 0 6.6289-2.8398 6.6289-6.6289v-10.891h17.051c28.414 0 51.148-33.625 51.148-74.824v-2.3672c-1.4297-70.074-35.051-129.75-80.043-145.85zm-48.305-118.39c0-11.84 9.9453-21.785 21.785-21.785s21.785 9.9453 21.785 21.785c0 11.84-9.9453 21.785-21.785 21.785-12.312 0-21.785-9.9453-21.785-21.785zm-73.879 24.152c0-11.84 9.9453-21.785 21.785-21.785s21.785 9.9453 21.785 21.785-9.9453 21.785-21.785 21.785-21.785-9.9453-21.785-21.785zm101.82 230.63-9.9453-36.938v39.781c-3.3164 0.94531-6.6289 1.4219-10.418 1.8945l-12.785-45.938v47.359c-6.6289 0.47266-13.262 0.47266-19.891 0v-47.359l-12.785 45.938c-3.7891-0.47266-7.1055-1.4219-10.418-1.8945v-39.781l-9.9492 36.938c-9.4727-4.2617-15.629-9.9453-15.629-17.051 0-32.676 26.52-58.723 58.723-58.723s58.723 26.52 58.723 58.723c0.003906 7.1055-6.1523 12.789-15.625 17.051z"/>
 </g>
</svg>
