<?xml version="1.0" encoding="UTF-8"?>
<svg width="752pt" height="752pt" version="1.1" viewBox="0 0 752 752" xmlns="http://www.w3.org/2000/svg">
 <g>
  <path d="m427.15 250.98c1.8945-3.7891 3.3164-8.5234 3.3164-13.262 0-16.102-12.785-44.043-28.887-44.043-13.262 0-6.6289 21.312-4.2617 37.887-7.5781-3.3164-15.629-4.7344-24.152-4.7344-8.0508 0-16.102 1.8945-24.152 4.7344 2.8398-16.574 8.9961-37.887-4.2617-37.887-16.102 0-28.887 27.941-28.887 44.043 0 4.7344 0.94531 9.4727 3.3164 13.262-44.516 40.727-75.301 123.13-75.301 175.23 0 71.039 57.777 128.81 128.81 128.81 71.039 0 128.81-57.777 128.81-128.81 0.94531-52.098-29.84-134.5-74.355-175.23zm-53.516 33.148c18.469 0 33.625 15.156 33.625 33.625s-15.156 33.625-33.625 33.625-33.625-15.156-33.625-33.625 15.156-33.625 33.625-33.625zm78.141 113.19h-156.28c-2.8398 0-5.2109-2.3672-5.2109-5.2109 0-2.8398 2.3672-5.2109 5.2109-5.2109h156.28c2.8398 0 5.2109 2.3672 5.2109 5.2109 0.47266 2.8438-2.3672 5.2109-5.2109 5.2109z"/>
  <path d="m385.47 317.75c0 6.5391-5.3008 11.84-11.84 11.84-6.5391 0-11.84-5.3008-11.84-11.84s5.3008-11.84 11.84-11.84c6.5391 0 11.84 5.3008 11.84 11.84"/>
 </g>
</svg>
