<?xml version="1.0" encoding="UTF-8"?>
<svg width="752pt" height="752pt" version="1.1" viewBox="0 0 752 752" xmlns="http://www.w3.org/2000/svg">
 <g>
  <path d="m437.32 259.04c0 5.9844-4.8477 10.832-10.828 10.832-5.9844 0-10.832-4.8477-10.832-10.832 0-5.9805 4.8477-10.828 10.832-10.828 5.9805 0 10.828 4.8477 10.828 10.828"/>
  <path d="m308.24 259.04c0 5.9844-4.8516 10.832-10.832 10.832-5.9805 0-10.832-4.8477-10.832-10.832 0-5.9805 4.8516-10.828 10.832-10.828 5.9805 0 10.832 4.8477 10.832 10.828"/>
  <path d="m592.64 328.39c-2.125-5.6719-15.113-16.359-24.113-20.145-1.0391-4.9141-3.6797-9.6562-8.1797-13.152-34.906-19.855-67.41 28.285-45.137 72.816 17.43 34.855-17.234 48.176-40.828 52.156-8.6016-46.355-43.195-109.83-57.719-131.23 15.344 9.9297 51.453-12.637 39.719-43.328-11.738-30.691-41.523-26.18-56.879-20.762-15.336 5.418-19.852 45.137-12.637 60.48 0.097656 0.19922 0.20312 0.42969 0.32031 0.67578-2.2383 1.4062-4.6367 3.6562-7.3438 6.668 4.7656 1.0312 8.6836 6.5078 11.953 9.582-2.9023 1.7891-6.6406 2.9062-9.0742 4.9766 7.5312 4.4297 6.6211 7.4727-2.1914 12.066 5.0625-0.46484 8.5195 1.8008 13.07 2.3359 0.19531 3.75-5.1797 6.9492-7.5977 9.5625 5.2891 1.5742 12.578-0.027344 17.867 3.1836-7.8984 3.6719-11.781 9.5312-17.797 16.016 4.707 0.91797 10.285-1.3984 15.363-0.94141-0.097656 2.6133-1.1953 2.2891-2.6016 4.1914-4.3203 5.8164-10.812 8.5859-13.109 16.332 4.4219-1.7344 26.367-0.29688 29.656 3.9727-8.3867 5.1367-16.574 10.543-24.594 16.277 8.6016 0.33984 16.129-0.3125 20.422 9.0703 1.9336-0.53516 3.6289-0.36328 5.6172-0.60938-9.8125 1.8867-17.379 8.0781-26.668 12.094 8.2109-0.35156 24.262 6.832 30.492 11.891-9.4922 1.4453-22.719 2.2031-31.078 6.6172 6.7148 0.82031 12.875 8.6953 17.676 12.781 0 0.015624 0.007813 0.019531 0.019532 0.023437-7.668 5.1133-18.137 8.1797-32.152 8.4258-10.773 0.1875-19.848-1.2852-27.445-4.082 5.9023-4.8555 12.598-9.6641 16.875-14.781-3.6836-1.9336-8.5586-1.0234-12.625-2.3359-8.5547-2.7578-13.055-3.5742-22.707-3.5078 7.2266-2.2734 20.141-8.7852 23.391-16.262-5.6133-2.5273-11.938-3.8984-17.309-6.9219-3.1953-1.8047-5.918-4.8594-9.2148-6.0859 8.7422-2.9727 16.109-10.754 25.363-11.758-3.2383-6.1289-14.516-10.613-20.926-13.27 6.8477-3.2617 13.609-6.8281 20.359-10.094-6.375-7.0156-14.672-14.078-23.254-18.66 5.6836-3.5938 13.176-6.7969 17.305-12.047-5.2812-1.4336-10.238-4.2656-15.605-5.5234-0.14062-6.1016 12.73-10.164 16.062-14.777-3.4336-3.5508-8.9141-8.1328-13.312-11.016 0.24219-0.50391 0.47656-0.99609 0.71094-1.4727 13.977-2.8125 10.902-5.4102 6.1836-10.121 13.773-19.098-4.043-50.75-27.035-62.957-11.777-6.2578-43.328-12.641-51.453 20.762-8.1211 33.398 22.57 59.578 46.941 49.645-4.5625 11.082-22.766 56.035-33.219 97.5-9.1914-28.852-25.785-60.285-50.895-67.465-33.684-9.6328-94.473 48.746-48.734 101.11 12.727 13.738 31.039 11.129 35.664-3.8359 7.6992 1.168 18.531 1.4648 24.113-0.98047 6.418-2.8086 2.4102-6.8203-1.6016-4.0156-3.3711 2.3672-13.848 2.457-21.656 0.99609 0.21875-1.6875 0.28906-3.4844 0.1875-5.4102-0.19922-3.9336-1.2578-7.2695-2.9062-9.9961 7.9375-4.668 12.531-10.23 15.949-13.27 3.6133-3.2148 1.6055-6.418-2.0039-2.043-2.6992 3.2734-10.199 8.7695-16.281 12.227-3.7227-3.9688-8.9688-5.9922-14.23-6.0391 1.1289-7.2891 4.3477-15.594 6.8398-19.129 3.2148-4.5469 2.4062-5.8867-2.0039-2.2734-3.6875 3.0156-7.375 12.195-8.4883 21.695-6.3594 1.0703-12.219 5.1133-14.781 12.207-19.262-31.629 14.781-72.961 46.25-66.805 25.082 4.9062 41.586 50.16 49.082 79.301-1.0078 6.3633-1.6758 12.402-1.8906 17.945-0.82812 21.082 9.3516 94.172 86.527 105.16-1.9805 16.016-2.4805 38.633 1.0273 50.762 4.0664 14.047 3.9609 2.4141 3.1602 0-3.5273-10.562-4.5117-31.195-0.77734-50.328 4.4141 0.50781 9.0273 0.83984 13.867 0.92188 6.7109 0.13281 12.977-0.058594 18.84-0.50391-1.8867 15.961-2.3125 37.992 1.1367 49.906 4.0664 14.047 3.9609 2.4141 3.1523 0-3.5156-10.547-4.5117-31.113-0.79688-50.219 72.297-7.1562 80.801-58.16 83.285-99.383 0.12891-2.1836 0.14844-4.4531 0.066406-6.8086 48.375-5.3711 67.707-36.586 49.133-71.48-19.855-37.309 0.60156-57.777 10.23-59.582-4.4961 1.5-7.7539 14.621 3.3398 22.125-2.0547 6.9961-2.4609 15.883-1.332 21.809 1.6094 8.4258 2.5898 3.6133 2.0977-1.2031-0.39844-3.8555 0.30469-11.359 2.8594-18.605 1.4961 0.67578 3.1914 1.2695 5.0781 1.7539 4.6094 1.1836 8.5898 0.72266 11.82-0.84766 2.1367 5.2773 4.2188 11.188 4.2188 15.695 0 6.418 4.0156 6.8203 3.6172-0.80078-0.28125-5.3047-2.3125-11.969-4.3281-17.289 4.0508-3.6953 6.1914-9.5625 5.9844-15.617 6.5508 3.2812 18.285 10.344 20.008 17.816 2.0117 8.6797 6.0273 4.668 3.6094-1.7539zm-295.23-47.684c-11.969 0-21.668-9.6992-21.668-21.668s9.6992-21.668 21.668-21.668c11.961 0 21.66 9.6992 21.66 21.668s-9.6914 21.668-21.66 21.668zm129.09-43.328c11.969 0 21.66 9.6992 21.66 21.668s-9.6953 21.668-21.66 21.668c-11.957 0-21.66-9.6992-21.66-21.668-0.003907-11.969 9.6992-21.668 21.66-21.668z"/>
 </g>
</svg>
