<?xml version="1.0" encoding="UTF-8"?>
<svg width="752pt" height="752pt" version="1.1" viewBox="0 0 752 752" xmlns="http://www.w3.org/2000/svg">
 <g>
  <path d="m401.7 610.08c-3.3906 0-6.7891-0.25391-10.133-0.75391-48.578-7.2773-134.84-35.281-142.01-39.434-12.688-7.3477-21.746-19.184-25.516-33.344-3.7734-14.164-1.8047-28.953 5.5391-41.629 15.141-26.121 28.645-27.242 64.734-30.234 1.7539-0.12109 40.727-2.9219 65.68-2.9219 3.3047 0 6.1992 0.058593 8.7227 0.15625 18.312-33.375 88.285-165.54 94.16-178.57 2.6719-5.9023 10.777-23.832 29.199-23.832 10.512 0 21.047 5.6055 34.383 12.707 2.4375 1.3008 4.9688 2.6484 7.625 4.0273 9.9336 5.1523 18.305 8.9766 25.703 12.352 25.414 11.594 42.207 19.242 27.832 51.082-16.051 35.555-122.26 228.81-127.16 237.02-12.289 20.59-34.801 33.379-58.766 33.379zm-41.703-128.86c-24.246 0-63.785 2.8164-64.18 2.8516-35.457 2.9297-39.688 3.8242-49.41 20.602-4.7461 8.1836-6.0156 17.727-3.5781 26.875 2.4297 9.1445 8.2812 16.793 16.469 21.531 5.6367 2.6875 87.297 29.863 135.14 37.027 2.3906 0.34766 4.832 0.53516 7.2617 0.53516 17.148 0 33.266-9.1523 42.07-23.895 4.8633-8.1562 110.25-199.87 126.14-235.07 6.4023-14.188 6.4023-14.188-18.18-25.395-7.2305-3.293-16.227-7.3984-26.598-12.785-2.7148-1.4062-5.3164-2.7891-7.8047-4.1133-10.512-5.5938-19.586-10.426-25.246-10.426-1.7578 0-5.8789 0-11.48 12.391-6.6602 14.77-85.707 163.97-97.914 185.48-1.9141 3.3828-5.6367 5.3477-9.5312 4.8555-2.875-0.31641-7.3047-0.46484-13.156-0.46484z"/>
  <path d="m570.38 352c-0.55859 0-1.125-0.12109-1.6641-0.37891l-104.27-49.02c-1.957-0.92188-2.8008-3.25-1.8789-5.2109 0.92969-1.957 3.2695-2.7852 5.1992-1.8789l104.28 49.027c1.957 0.92578 2.793 3.2578 1.875 5.2148-0.67188 1.4141-2.0742 2.2461-3.543 2.2461z"/>
  <path d="m491.64 314.12c-0.56641 0-1.1484-0.125-1.6953-0.39062-1.9453-0.92969-2.7695-3.2734-1.8359-5.2188l17.555-36.613c0.9375-1.9531 3.2695-2.7734 5.2266-1.8398 1.9414 0.9375 2.7695 3.2734 1.832 5.2266l-17.555 36.613c-0.67578 1.4023-2.0703 2.2227-3.5273 2.2227z"/>
  <path d="m511.18 323.8c-0.56641 0-1.1406-0.12109-1.6875-0.38281-1.9453-0.92969-2.7734-3.2734-1.8359-5.2188l17.559-36.613c0.94141-1.957 3.2852-2.7539 5.2188-1.8359 1.9453 0.92969 2.7734 3.2734 1.8359 5.2188l-17.559 36.613c-0.67578 1.3984-2.0703 2.2188-3.5312 2.2188z"/>
  <path d="m529.91 332.43c-0.56641 0-1.1484-0.12109-1.6875-0.39062-1.9531-0.92969-2.7734-3.2695-1.8398-5.2188l17.559-36.613c0.94531-1.957 3.293-2.7539 5.2266-1.8359 1.9453 0.9375 2.7695 3.2734 1.8359 5.2266l-17.559 36.613c-0.67578 1.3945-2.0781 2.2188-3.5352 2.2188z"/>
  <path d="m548 339.24c-0.57422 0-1.1484-0.12109-1.6953-0.39063-1.9453-0.92969-2.7695-3.2695-1.8359-5.2188l17.559-36.613c0.94531-1.957 3.2891-2.7617 5.2188-1.8359 1.9531 0.9375 2.7734 3.2734 1.8398 5.2266l-17.559 36.613c-0.67578 1.3984-2.0703 2.2188-3.5273 2.2188z"/>
  <path d="m400.45 605.42c-8.1836 0-16.785-1.6094-25.594-4.7891-1.0117-0.36719-1.8242-1.1406-2.2617-2.1328-0.42578-0.98828-0.42578-2.1094 0-3.1094l21.766-50.633c0.72656-1.6953 2.5469-2.6367 4.3711-2.2852l61.082 12.461c1.1406 0.22656 2.1211 0.95703 2.6719 1.9883 0.54688 1.0312 0.60938 2.2539 0.16406 3.3242-0.75781 1.8516-19.012 45.176-62.199 45.176zm-18.992-10.844c6.5547 2 12.93 3.0195 18.984 3.0195 30.348 0 47.23-25.602 52.836-36.012l-53-10.805z"/>
  <path d="m256.18 566.52c-0.67188 0-1.3438-0.16406-1.9375-0.51172l-1.7422-0.98437c-11.371-6.6055-19.469-17.191-22.844-29.855-3.3789-12.648-1.6172-25.875 4.9531-37.203 8.7383-15.086 25.016-24.449 42.477-24.449 2.2773 0 4.5781 0.16406 6.8359 0.48438 0.86719 0.125 1.668 0.53516 2.2773 1.1719 9.7969 10.215 15.191 23.609 15.191 37.703 0 26.238-18.711 48.773-44.496 53.578-0.23828 0.050781-0.48047 0.066406-0.71484 0.066406zm20.906-85.168c-14.68 0-28.355 7.8789-35.703 20.543-5.5195 9.5195-7 20.629-4.1641 31.266 2.8359 10.645 9.6445 19.543 19.168 25.062l0.44922 0.25391c21.363-4.6367 36.723-23.594 36.723-45.602 0-11.609-4.2852-22.668-12.086-31.289-1.457-0.16016-2.9297-0.23438-4.3867-0.23438z"/>
  <path d="m326.27 444.6c-8.25 0-16.539-1.4688-24.43-4.5-3.2148-1.2383-6.3125-2.7109-9.207-4.3477-42.676-24.195-113.16-81.305-118.38-87.75-9.207-11.414-13.418-25.727-11.852-40.293 1.5586-14.574 8.7031-27.664 20.113-36.859 23.496-18.949 36.508-15.156 71.262-5.0039 2.2773 0.6875 48.906 14.906 70.438 24.125 29.043-24.551 141.77-122.8 151.99-132.9 9.6758-9.5664 18.195-13.906 27.383-13.523 13.887 0.53125 23.625 11.766 35.949 25.984 1.8047 2.0781 3.6836 4.2422 5.6523 6.4688 7.4141 8.3672 13.871 14.945 19.559 20.742 19.574 19.938 32.504 33.109 7.6562 57.672-5.75 5.6875-17.691 16.484-35.488 32.094-4.0508 3.543-10.191 3.1328-13.711-0.90625-3.5469-4.0352-3.1367-10.172 0.89844-13.707 17.5-15.348 29.156-25.879 34.633-31.297 11.07-10.945 11.07-10.945-7.8555-30.234-5.5664-5.6719-12.492-12.723-20.238-21.469-2.0195-2.2852-3.9375-4.4922-5.7891-6.625-8.8828-10.238-16.555-19.086-22.012-19.297-4.0078-0.085937-9.2383 4.2266-12.984 7.9219-11.578 11.445-138.89 122.34-157.96 137.99-3.0039 2.4727-7.1875 2.9102-10.633 1.1211-12.801-6.625-57.055-20.68-73.031-25.543-34.145-9.9609-38.418-10.66-53.516 1.5117-7.3672 5.9414-11.977 14.387-12.988 23.793-1.0117 9.4102 1.7109 18.645 7.6445 26.004 4.3008 4.5312 70.797 59.219 112.86 83.062 2.0742 1.1875 4.2891 2.2305 6.5938 3.1211 16.023 6.1445 34.344 3.3828 47.828-7.2188 2.3086-1.8086 28.562-23.848 64.523-54.398 4.0938-3.4844 10.23-2.9727 13.703 1.1172 3.4688 4.0898 2.9727 10.219-1.1172 13.695-32.277 27.422-62.004 52.438-65.098 54.867-12.191 9.5898-27.23 14.578-42.391 14.578z"/>
  <path d="m553.3 259.98c-1.0312 0-2.0664-0.40625-2.8242-1.2031l-79.75-83.184c-1.4961-1.5586-1.4453-4.0352 0.10938-5.5352 1.5664-1.4961 4.0508-1.4375 5.5312 0.12109l79.746 83.184c1.5 1.5586 1.4453 4.0352-0.10938 5.5352-0.76172 0.71875-1.7344 1.082-2.7031 1.082z"/>
  <path d="m493.39 196.39c-1.0352 0-2.0781-0.41016-2.8516-1.2266-1.4844-1.5742-1.4141-4.0508 0.16406-5.5312l29.52-27.879c1.5742-1.4883 4.0508-1.4141 5.5352 0.15625 1.4844 1.5742 1.4141 4.0469-0.15625 5.5312l-29.52 27.879c-0.75781 0.71484-1.7344 1.0703-2.6914 1.0703z"/>
  <path d="m508.17 212.43c-1.0352 0-2.0781-0.41016-2.8516-1.2266-1.4805-1.5742-1.4102-4.0508 0.16406-5.5352l29.516-27.867c1.5781-1.4844 4.0586-1.4141 5.5391 0.15625 1.4844 1.5742 1.4141 4.0508-0.15625 5.5352l-29.52 27.871c-0.76172 0.71484-1.7305 1.0664-2.6914 1.0664z"/>
  <path d="m522.56 227.21c-1.0352 0-2.0781-0.41016-2.8516-1.2266-1.4844-1.5742-1.4141-4.0508 0.15625-5.5352l29.52-27.871c1.5742-1.4844 4.0586-1.4102 5.5391 0.15625 1.4844 1.5742 1.4141 4.0508-0.16406 5.5352l-29.52 27.867c-0.75781 0.72266-1.7227 1.0742-2.6797 1.0742z"/>
  <path d="m536.98 240.06c-1.0352 0-2.0781-0.41016-2.8398-1.2266-1.4844-1.5742-1.4141-4.0508 0.15234-5.5352l29.523-27.871c1.5742-1.4844 4.0508-1.4102 5.5352 0.16406 1.4844 1.5664 1.4141 4.0508-0.15234 5.5352l-29.523 27.867c-0.76172 0.71094-1.7344 1.0664-2.6953 1.0664z"/>
  <path d="m323.63 439.29c-15.324 0-29.941-5.9531-43.453-17.668-0.81641-0.69922-1.3047-1.7109-1.3477-2.793-0.046875-1.0742 0.35156-2.1211 1.1055-2.8906l38.477-39.461c1.3047-1.3242 3.3555-1.5469 4.9102-0.55859l52.547 33.562c0.98438 0.62109 1.6328 1.6523 1.7734 2.8086 0.14062 1.168-0.23047 2.3203-1.0352 3.1719-0.92188 0.97656-22.828 23.828-52.977 23.828zm-35.117-20.934c11.125 8.6992 22.918 13.098 35.117 13.098 20.285 0 36.836-12.117 43.766-18.098l-45.605-29.129z"/>
  <path d="m192.17 348.32c-3.293 0-6.6094-0.30469-9.8555-0.89844-0.91406-0.17188-1.7461-0.66406-2.332-1.3906l-1.2539-1.543c-8.2461-10.219-12.008-23.02-10.613-36.051 1.3945-13.027 7.7812-24.73 17.98-32.949 15.195-12.254 37.641-14.109 54.621-4.6836 0.76953 0.42578 1.3672 1.1016 1.7031 1.9102 5.4766 13.07 5.7031 27.504 0.65234 40.652-8.0312 20.906-28.492 34.953-50.902 34.953zm-7.0352-8.3711c2.3242 0.35938 4.6875 0.53516 7.0352 0.53516 19.191 0 36.719-12.023 43.602-29.93 4.168-10.828 4.1367-22.691-0.050782-33.547-5.8203-2.9766-12.32-4.5508-18.891-4.5508-9.4883 0-18.418 3.1562-25.816 9.1172-8.5703 6.9102-13.934 16.742-15.113 27.699-1.1719 10.949 1.9883 21.707 8.8984 30.273z"/>
 </g>
</svg>
